HIERARCHY
ROOT Hips
{
    OFFSET 0.000000 0.000000 0.000000
    CHANNELS 6 Xposition Yposition Zposition Zrotation Xrotation Yrotation
    JOINT Spine
    {
        OFFSET -0.000000 7.236184 0.000000
        CHANNELS 3 Zrotation Xrotation Yrotation
        JOINT Spine1
        {
            OFFSET -0.000000 20.420147 0.000000
            CHANNELS 3 Zrotation Xrotation Yrotation
            JOINT Neck
            {
                OFFSET -0.000000 20.336288 1.848754
                CHANNELS 3 Zrotation Xrotation Yrotation
                JOINT Head
                {
                    OFFSET -0.000000 12.354461 -1.764923
                    CHANNELS 3 Zrotation Xrotation Yrotation
                    End Site
                    {
                        OFFSET -0.000000 22.061537 0.000000
                    }
                }
            }
            JOINT LeftShoulder
            {
                OFFSET 3.573296 18.396038 -0.314103
                CHANNELS 3 Zrotation Xrotation Yrotation
                JOINT LeftArm
                {
                    OFFSET 10.880760 0.000000 0.000000
                    CHANNELS 3 Zrotation Xrotation Yrotation
                    JOINT LeftForeArm
                    {
                        OFFSET 27.185530 0.000000 0.000000
                        CHANNELS 3 Zrotation Xrotation Yrotation
                        JOINT LeftHand
                        {
                            OFFSET 27.825975 0.000000 0.000000
                            CHANNELS 3 Zrotation Xrotation Yrotation
                            End Site
                            {
                                OFFSET 13.236923 0.000000 0.000000
                            }
                        }
                    }
                }
            }
            JOINT RightShoulder
            {
                OFFSET -3.474926 18.396038 -0.314103
                CHANNELS 3 Zrotation Xrotation Yrotation
                JOINT RightArm
                {
                    OFFSET -10.880760 0.000000 0.000000
                    CHANNELS 3 Zrotation Xrotation Yrotation
                    JOINT RightForeArm
                    {
                        OFFSET -27.185530 0.000000 0.000000
                        CHANNELS 3 Zrotation Xrotation Yrotation
                        JOINT RightHand
                        {
                            OFFSET -27.825975 0.000000 0.000000
                            CHANNELS 3 Zrotation Xrotation Yrotation
                            End Site
                            {
                                OFFSET -13.236923 0.000000 0.000000
                            }
                        }
                    }
                }
            }
        }
    }
    JOINT LeftUpLeg
    {
        OFFSET 8.824615 0.000000 0.000000
        CHANNELS 3 Zrotation Xrotation Yrotation
        JOINT LeftLeg
        {
            OFFSET -0.000000 -35.111282 0.000000
            CHANNELS 3 Zrotation Xrotation Yrotation
            JOINT LeftFoot
            {
                OFFSET -0.000000 -42.324711 0.000000
                CHANNELS 3 Zrotation Xrotation Yrotation
                JOINT LeftToeBase
                {
                    OFFSET -0.000000 -5.735999 13.236923
                    CHANNELS 3 Zrotation Xrotation Yrotation
                    End Site
                    {
                        OFFSET -0.000000 0.000000 3.529846
                    }
                }
            }
        }
    }
    JOINT RightUpLeg
    {
        OFFSET -8.824615 0.000000 0.000000
        CHANNELS 3 Zrotation Xrotation Yrotation
        JOINT RightLeg
        {
            OFFSET -0.000000 -35.111282 0.000000
            CHANNELS 3 Zrotation Xrotation Yrotation
            JOINT RightFoot
            {
                OFFSET -0.000000 -42.324711 0.000000
                CHANNELS 3 Zrotation Xrotation Yrotation
                JOINT RightToeBase
                {
                    OFFSET -0.000000 -5.735999 13.236923
                    CHANNELS 3 Zrotation Xrotation Yrotation
                    End Site
                    {
                        OFFSET -0.000000 0.000000 3.529846
                    }
                }
            }
        }
    }
}
MOTION
Frames:    7
Frame Time:    0.008333
9.579483    81.101212    113.269547    1.140735    -10.027875    -171.845413    -1.618142    -11.342440    0.365122    -0.854107    7.619678    0.582772    3.382473    8.585909    -2.005570    4.109968    -10.446490    -1.377159    -1.178617    17.226244    0.527414    -51.952324    34.170528    -34.466442    2.683131    -7.229433    -10.245246    15.651331    -6.817366    1.270411    7.473217    18.352320    -6.655322    42.408962    44.966541    37.292404    -2.890959    -8.601638    17.571045    -16.298786    -7.540739    -4.359962    9.919531    -24.650116    -2.845433    0.187598    27.563511    5.267770    -11.197021    -10.694789    -14.344347    -0.693050    -0.209446    0.768510    -14.278760    -7.592819    -6.226165    2.786644    9.663308    -3.434735    11.180243    -7.015166    -11.415521    -0.802857    1.169812    0.866972    
9.329688    81.039658    113.274643    1.256517    -10.052156    -171.707214    -1.591109    -11.285427    0.402145    -0.758624    7.620896    0.609976    3.359548    8.441304    -2.081104    4.288820    -10.605759    -1.411419    -1.226418    17.257320    0.525450    -51.994366    33.959839    -34.433399    2.643406    -7.202692    -10.057720    15.942172    -6.782308    1.363221    7.428074    18.323751    -6.652887    42.420898    44.905849    37.124866    -2.879654    -8.637311    17.646143    -16.318428    -7.583216    -4.306140    9.741708    -25.064081    -3.019427    0.249035    28.213701    5.257886    -11.026546    -10.983957    -14.359426    -0.676290    -0.228168    0.749951    -14.395546    -7.712144    -6.404552    2.781662    9.926973    -3.394770    11.415309    -7.000529    -11.399320    -0.809675    1.099067    0.874419    
9.080826    80.979187    113.279106    1.370154    -10.075074    -171.571899    -1.566250    -11.230248    0.438243    -0.661954    7.622509    0.636429    3.337866    8.298174    -2.156053    4.468686    -10.762033    -1.444454    -1.273748    17.285074    0.520283    -52.032383    33.760239    -34.398129    2.607014    -7.176581    -9.878563    16.214193    -6.747501    1.452633    7.384105    18.295502    -6.651843    42.433369    44.844082    36.956615    -2.868366    -8.670421    17.721148    -16.337124    -7.623161    -4.252670    9.560200    -25.466089    -3.193672    0.311606    28.848230    5.252576    -10.859739    -11.266859    -14.376492    -0.659940    -0.245295    0.731843    -14.513252    -7.827145    -6.579020    2.775739    10.185398    -3.354665    11.649677    -6.982292    -11.381493    -0.814753    1.026658    0.879988    
8.829508    80.919800    113.282646    1.481519    -10.097042    -171.439896    -1.545540    -11.177855    0.473083    -0.561379    7.624534    0.661827    3.318772    8.154623    -2.231265    4.653477    -10.913738    -1.476486    -1.320804    17.306650    0.509703    -52.068649    33.573860    -34.355885    2.573624    -7.148378    -9.710481    16.452528    -6.711245    1.533456    7.342214    18.266901    -6.653913    42.446671    44.778305    36.784969    -2.856612    -8.699157    17.796455    -16.353973    -7.658976    -4.198558    9.371402    -25.854647    -3.367696    0.378398    29.465603    5.249981    -10.697365    -11.544380    -14.395480    -0.644190    -0.259102    0.714395    -14.634516    -7.938234    -6.750696    2.768039    10.439233    -3.313622    11.886817    -6.956831    -11.359402    -0.816499    0.949763    0.881965    
8.573298    80.861748    113.284996    1.589718    -10.118299    -171.312256    -1.530955    -11.129097    0.506359    -0.455254    7.626851    0.685877    3.303614    8.009928    -2.307325    4.845925    -11.060198    -1.507564    -1.367153    17.320101    0.492397    -52.101921    33.407341    -34.304230    2.543569    -7.119030    -9.557255    16.644972    -6.675186    1.602390    7.302698    18.238020    -6.660423    42.462696    44.705223    36.608059    -2.844124    -8.721671    17.871611    -16.368715    -7.688951    -4.143250    9.172117    -26.226782    -3.540099    0.452402    30.062346    5.247903    -10.540254    -11.816589    -14.416189    -0.628939    -0.269330    0.697494    -14.761848    -8.044804    -6.916714    2.758447    10.687251    -3.273059    12.129011    -6.920471    -11.331582    -0.813380    0.865033    0.878697    
8.312469    80.805885    113.285995    1.693208    -10.139023    -171.191116    -1.523805    -11.084798    0.537568    -0.343742    7.629000    0.708444    3.293568    7.863974    -2.384068    5.046249    -11.198520    -1.537741    -1.411787    17.323332    0.467793    -52.132969    33.265087    -34.240780    2.516349    -7.088440    -9.422255    16.784094    -6.639855    1.656750    7.266584    18.209146    -6.672720    42.483120    44.622635    36.425911    -2.830978    -8.736330    17.945499    -16.380596    -7.711379    -4.087350    8.962423    -26.577349    -3.708655    0.533733    30.630928    5.244190    -10.390162    -12.081494    -14.436813    -0.614277    -0.274522    0.681241    -14.896048    -8.145901    -7.072758    2.746945    10.926404    -3.235576    12.376359    -6.869802    -11.296098    -0.804131    0.770830    0.868816    
8.043090    80.752159    113.285622    1.791672    -10.160514    -171.076736    -1.525479    -11.045381    0.567147    -0.225766    7.630198    0.729727    3.289188    7.715350    -2.462714    5.258013    -11.329844    -1.567545    -1.454193    17.316191    0.435708    -52.161900    33.148331    -34.164349    2.490557    -7.056295    -9.306033    16.871035    -6.605129    1.696841    7.233851    18.180597    -6.692326    42.511349    44.527149    36.235115    -2.818224    -8.741845    18.018635    -16.389078    -7.724747    -4.031513    8.738954    -26.908323    -3.874525    0.622322    31.174292    5.236634    -10.244979    -12.342089    -14.454360    -0.599870    -0.275015    0.665264    -15.041039    -8.242904    -7.214822    2.734472    11.157286    -3.204131    12.632354    -6.800542    -11.252192    -0.787485    0.663323    0.850955    
